<?xml version="1.0" encoding="utf-8"?>
<!-- Generator: Adobe Illustrator 23.0.4, SVG Export Plug-In . SVG Version: 6.00 Build 0)  -->
<svg version="1.1" id="Layer_1" xmlns="http://www.w3.org/2000/svg" xmlns:xlink="http://www.w3.org/1999/xlink" x="0px" y="0px"
	 viewBox="0 0 128 128" style="enable-background:new 0 0 128 128;" xml:space="preserve">
<style type="text/css">
	.st0{fill:#FF7F00;}
	.st1{fill:#FCC21B;}
</style>
<path class="st0" d="M127.6,64c-19.9-11.1-24.8-26.5-18.6-45c-20.2,6.2-35.2,0-45-18.6C54.2,19,39.2,25.2,19,19
	c6.2,20.2,0,35.2-18.6,45C19,73.8,25.2,88.8,19,109c20.2-6.2,35.2,0,45,18.6c9.8-18.6,24.8-24.8,45-18.6
	C102.8,88.8,109,73.8,127.6,64z M64,102.6c-21.3,0-38.6-17.3-38.6-38.6S42.7,25.4,64,25.4s38.6,17.3,38.6,38.6S85.3,102.6,64,102.6z
	"/>
<path class="st1" d="M64,30.3c-18.6,0-33.7,15.1-33.7,33.7S45.4,97.7,64,97.7S97.7,82.6,97.7,64S82.6,30.3,64,30.3z"/>
</svg>
